<svg width="298" height="96" viewBox="0 0 298 96" fill="none" xmlns="http://www.w3.org/2000/svg">
<path d="M42.35 65.2845L10.15 78.7845C4.84996 80.9845 0.449951 77.2845 0.449951 70.4845V30.9845C0.449951 24.1845 4.74996 16.8845 10.15 14.5845L42.35 1.08452C47.65 -1.11548 52.05 2.58454 52.05 9.38454V48.8845C52.05 55.6845 47.75 62.9845 42.35 65.2845Z" fill="url(#paint0_linear_10_88)" stroke="#4AA3D8" stroke-width="0.9" stroke-miterlimit="10"/>
<path d="M50.7501 70.3845L18.5501 83.8845C13.2501 86.0845 8.8501 82.3845 8.8501 75.5845V36.0845C8.8501 29.2845 13.1501 21.9845 18.5501 19.6845L50.7501 6.18453C56.0501 3.98453 60.4501 7.68454 60.4501 14.4845V53.9845C60.4501 60.7845 56.1501 68.0845 50.7501 70.3845Z" fill="url(#paint1_linear_10_88)" stroke="#4AA3D8" stroke-width="0.9" stroke-miterlimit="10"/>
<path d="M59.2501 75.4846L27.0501 88.9846C21.7501 91.1846 17.3501 87.4845 17.3501 80.6845V41.1845C17.3501 34.3845 21.6501 27.0845 27.0501 24.7845L59.2501 11.2845C64.5501 9.08454 68.9501 12.7845 68.9501 19.5845V59.0845C68.9501 65.8845 64.6501 73.1846 59.2501 75.4846Z" fill="url(#paint2_linear_10_88)" stroke="#4AA3D8" stroke-width="0.9" stroke-miterlimit="10"/>
<path d="M42.35 65.2845L10.15 78.7845C4.84996 80.9845 0.449951 77.2845 0.449951 70.4845V30.9845C0.449951 24.1845 4.74996 16.8845 10.15 14.5845L42.35 1.08452C47.65 -1.11548 52.05 2.58454 52.05 9.38454V48.8845C52.05 55.6845 47.75 62.9845 42.35 65.2845Z" stroke="url(#paint3_linear_10_88)" stroke-width="0.9" stroke-miterlimit="10"/>
<path d="M50.7501 70.3845L18.5501 83.8845C13.2501 86.0845 8.8501 82.3845 8.8501 75.5845V36.0845C8.8501 29.2845 13.1501 21.9845 18.5501 19.6845L50.7501 6.18453C56.0501 3.98453 60.4501 7.68454 60.4501 14.4845V53.9845C60.4501 60.7845 56.1501 68.0845 50.7501 70.3845Z" stroke="url(#paint4_linear_10_88)" stroke-width="0.9" stroke-miterlimit="10"/>
<path d="M59.2501 75.4846L27.0501 88.9846C21.7501 91.1846 17.3501 87.4845 17.3501 80.6845V41.1845C17.3501 34.3845 21.6501 27.0845 27.0501 24.7845L59.2501 11.2845C64.5501 9.08454 68.9501 12.7845 68.9501 19.5845V59.0845C68.9501 65.8845 64.6501 73.1846 59.2501 75.4846Z" stroke="url(#paint5_linear_10_88)" stroke-width="0.9" stroke-miterlimit="10"/>
<path d="M67.65 80.5845L35.45 94.0845C30.15 96.2845 25.75 92.5845 25.75 85.7845V46.2845C25.75 39.4845 30.05 32.1845 35.45 29.8845L67.65 16.3845C72.95 14.1845 77.35 17.8845 77.35 24.6845V64.1845C77.35 70.9845 73.05 78.2845 67.65 80.5845Z" fill="url(#paint6_linear_10_88)" stroke="url(#paint7_linear_10_88)" stroke-width="0.9" stroke-miterlimit="10"/>
<path d="M60.7501 51.1845L60.2501 51.3845C59.1501 51.7845 58.3501 51.3845 58.3501 50.2845V44.8845C58.3501 43.7845 59.2501 42.5845 60.2501 42.1845L60.7501 41.9846C61.8501 41.5846 62.6501 41.9845 62.6501 43.0845V48.4846C62.6501 49.5846 61.7501 50.7845 60.7501 51.1845Z" fill="#09567C"/>
<path d="M45.65 57.4845L45.15 57.6845C44.05 58.0845 43.25 57.6845 43.25 56.5845V51.1845C43.25 50.0845 44.15 48.8845 45.15 48.4845L45.65 48.2845C46.75 47.8845 47.55 48.2845 47.55 49.3845V54.7845C47.55 55.8845 46.65 57.0845 45.65 57.4845Z" fill="#09567C"/>
<path d="M103.25 62.2845H95.55V26.6845H108.15C111.55 26.6845 114.45 27.1845 116.85 28.1845C119.25 29.1845 121.15 30.6845 122.45 32.5845C123.75 34.4845 124.45 36.8845 124.45 39.5845C124.45 42.2845 123.85 44.8845 122.55 46.7845C121.25 48.7845 119.45 50.2845 117.05 51.2845C114.65 52.2845 111.85 52.7845 108.55 52.7845H101.55L102.55 45.5845H108.35C110.05 45.5845 111.55 45.3846 112.75 44.8846C113.95 44.4846 114.85 43.7846 115.55 42.8846C116.25 41.9846 116.55 40.8846 116.55 39.4846C116.55 38.0846 116.25 37.0845 115.55 36.1845C114.85 35.2845 113.95 34.6845 112.75 34.2845C111.55 33.8845 110.05 33.6845 108.35 33.6845H103.35V62.1845L103.25 62.2845Z" fill="white"/>
<path d="M138.35 26.6845V55.1845H154.95V62.3846H137.45C135.05 62.3846 133.25 61.7845 132.25 60.5845C131.15 59.3845 130.65 57.7845 130.65 55.7845V26.7845H138.35V26.6845Z" fill="white"/>
<path d="M161.35 26.6845H169.05V62.3846H161.35V26.6845Z" fill="white"/>
<path d="M186.65 62.2845H179.25V31.4846C179.25 30.2846 179.55 29.2846 180.05 28.4846C180.55 27.6846 181.25 26.9845 182.05 26.5845C182.85 26.1845 183.75 25.8846 184.75 25.8846C185.75 25.8846 186.95 26.0845 187.85 26.5845C188.75 26.9845 189.55 27.7845 190.05 28.6845L205.25 54.7845C205.15 54.6845 204.95 54.5845 204.85 54.5845C204.75 54.5845 204.65 54.5845 204.55 54.5845C204.45 54.5845 204.35 54.5845 204.25 54.7845C204.15 54.8845 204.05 55.0845 204.05 55.2845V26.6845H211.35V57.4846C211.35 58.6846 211.05 59.6846 210.55 60.4846C210.05 61.2846 209.35 61.9846 208.55 62.3846C207.75 62.7846 206.85 62.9846 205.95 62.9846C205.05 62.9846 203.75 62.7845 202.85 62.2845C201.85 61.8845 201.15 61.1845 200.55 60.1845L185.45 34.1845C185.55 34.1845 185.65 34.2845 185.75 34.2845C185.75 34.2845 185.95 34.2845 186.05 34.2845C186.15 34.2845 186.25 34.2845 186.35 34.0845C186.35 33.9845 186.45 33.8845 186.45 33.6845V62.1845L186.65 62.2845Z" fill="white"/>
<path d="M235.25 63.0845C232.65 63.0845 230.25 62.5845 227.95 61.6845C225.75 60.6845 223.75 59.3845 222.05 57.6845C220.35 55.9845 219.05 53.9845 218.15 51.7845C217.25 49.5845 216.75 47.0845 216.75 44.5845C216.75 42.0845 217.25 39.5846 218.15 37.3846C219.05 35.1846 220.35 33.1846 222.05 31.4846C223.75 29.7846 225.65 28.4845 227.95 27.5845C230.25 26.5845 232.65 26.1845 235.25 26.1845C237.85 26.1845 239.25 26.4845 241.15 27.1845C243.05 27.8845 244.85 28.8845 246.35 30.0845C247.85 31.3845 249.05 32.9846 249.95 34.8846L243.65 38.4846C243.05 37.3846 242.35 36.4845 241.55 35.7845C240.75 34.9845 239.75 34.4845 238.65 34.0845C237.55 33.6845 236.35 33.4846 234.85 33.4846C233.35 33.4846 231.95 33.7846 230.75 34.3846C229.55 34.9846 228.45 35.7845 227.55 36.7845C226.65 37.7845 225.95 38.9846 225.45 40.3846C224.95 41.7846 224.75 43.2846 224.75 44.8846C224.75 46.4846 225.05 48.0846 225.55 49.4846C226.05 50.8846 226.75 52.0845 227.65 53.0845C228.55 54.0845 229.65 54.8846 230.95 55.4846C232.25 55.9846 233.65 56.2845 235.25 56.2845C236.85 56.2845 237.45 56.1846 238.45 55.9846C239.45 55.7846 240.25 55.4845 241.05 55.0845C241.85 54.6845 242.45 54.2845 242.95 53.6845V45.7845H250.45V56.2845C249.65 57.5845 248.45 58.7846 246.95 59.8846C245.45 60.9846 243.75 61.7846 241.75 62.3846C239.75 62.9846 237.65 63.3846 235.25 63.3846V63.0845Z" fill="white"/>
<path d="M272.25 62.9846C269.65 62.9846 267.15 62.4845 264.95 61.5845C262.65 60.6845 260.75 59.3845 259.05 57.6845C257.35 55.9845 256.05 54.0845 255.15 51.7845C254.25 49.4845 253.75 47.0846 253.75 44.4846C253.75 41.8846 254.25 39.3845 255.15 37.1845C256.05 34.8845 257.35 32.9845 259.05 31.2845C260.75 29.5845 262.65 28.2846 264.95 27.3846C267.25 26.4846 269.65 25.9846 272.25 25.9846C274.85 25.9846 277.35 26.4846 279.55 27.3846C281.75 28.2846 283.75 29.5845 285.45 31.2845C287.15 32.9845 288.45 34.8845 289.35 37.1845C290.25 39.4845 290.75 41.8846 290.75 44.4846C290.75 47.0846 290.25 49.5845 289.35 51.7845C288.45 54.0845 287.05 55.9845 285.45 57.6845C283.75 59.3845 281.75 60.6845 279.55 61.5845C277.35 62.4845 274.85 62.9846 272.25 62.9846ZM272.25 55.6845C273.75 55.6845 275.15 55.3846 276.45 54.8846C277.75 54.2846 278.85 53.4846 279.85 52.4846C280.85 51.4846 281.55 50.2846 282.15 48.8846C282.65 47.4846 282.95 46.0846 282.95 44.4846C282.95 42.8846 282.65 41.3845 282.15 40.0845C281.65 38.7845 280.85 37.5846 279.85 36.4846C278.85 35.4846 277.75 34.6845 276.45 34.0845C275.15 33.4845 273.75 33.2845 272.25 33.2845C270.75 33.2845 269.35 33.5845 268.05 34.0845C266.75 34.6845 265.65 35.4846 264.65 36.4846C263.65 37.4846 262.95 38.6845 262.35 40.0845C261.85 41.3845 261.55 42.8846 261.55 44.4846C261.55 46.0846 261.85 47.4846 262.35 48.8846C262.85 50.2846 263.65 51.4846 264.65 52.4846C265.65 53.4846 266.75 54.2846 268.05 54.8846C269.35 55.4846 270.75 55.6845 272.25 55.6845Z" fill="white"/>
<path d="M95.1956 67.4027H96.2046L98.5774 73.1982H98.6592L101.032 67.4027H102.041V74.3846H101.25V69.08H101.182L99.0001 74.3846H98.2365L96.0546 69.08H95.9865V74.3846H95.1956V67.4027ZM105.168 74.5073C104.836 74.5073 104.535 74.4448 104.265 74.3198C103.994 74.1925 103.779 74.0096 103.62 73.7709C103.461 73.53 103.382 73.2391 103.382 72.8982C103.382 72.5982 103.441 72.355 103.559 72.1686C103.677 71.98 103.835 71.8323 104.033 71.7255C104.23 71.6186 104.449 71.5391 104.687 71.4868C104.928 71.4323 105.17 71.3891 105.413 71.3573C105.732 71.3164 105.99 71.2857 106.187 71.2652C106.387 71.2425 106.533 71.205 106.624 71.1527C106.717 71.1005 106.763 71.0096 106.763 70.88V70.8527C106.763 70.5164 106.671 70.255 106.487 70.0686C106.305 69.8823 106.029 69.7891 105.659 69.7891C105.275 69.7891 104.974 69.8732 104.755 70.0414C104.537 70.2096 104.384 70.3891 104.295 70.58L103.532 70.3073C103.668 69.9891 103.85 69.7414 104.077 69.5641C104.307 69.3846 104.557 69.2596 104.827 69.1891C105.1 69.1164 105.368 69.08 105.632 69.08C105.8 69.08 105.993 69.1005 106.211 69.1414C106.432 69.18 106.644 69.2607 106.849 69.3834C107.055 69.5061 107.227 69.6914 107.363 69.9391C107.5 70.1868 107.568 70.5186 107.568 70.9346V74.3846H106.763V73.6755H106.723C106.668 73.7891 106.577 73.9107 106.45 74.0402C106.323 74.1698 106.153 74.28 105.942 74.3709C105.73 74.4618 105.473 74.5073 105.168 74.5073ZM105.291 73.7846C105.609 73.7846 105.877 73.7221 106.095 73.5971C106.316 73.4721 106.482 73.3107 106.593 73.113C106.707 72.9152 106.763 72.7073 106.763 72.4891V71.7527C106.729 71.7936 106.654 71.8311 106.538 71.8652C106.425 71.8971 106.293 71.9255 106.143 71.9505C105.995 71.9732 105.851 71.9936 105.71 72.0118C105.571 72.0277 105.459 72.0414 105.373 72.0527C105.163 72.08 104.968 72.1243 104.786 72.1857C104.607 72.2448 104.461 72.3346 104.35 72.455C104.241 72.5732 104.186 72.7346 104.186 72.9391C104.186 73.2186 104.29 73.43 104.496 73.5732C104.705 73.7141 104.97 73.7846 105.291 73.7846ZM111.014 74.4936C110.577 74.4936 110.192 74.3834 109.858 74.163C109.524 73.9402 109.263 73.6266 109.074 73.2221C108.885 72.8152 108.791 72.3346 108.791 71.78C108.791 71.23 108.885 70.7527 109.074 70.3482C109.263 69.9436 109.525 69.6311 109.861 69.4107C110.198 69.1902 110.586 69.08 111.027 69.08C111.368 69.08 111.638 69.1368 111.835 69.2505C112.035 69.3618 112.188 69.4891 112.292 69.6323C112.399 69.7732 112.482 69.8891 112.541 69.98H112.609V67.4027H113.414V74.3846H112.636V73.58H112.541C112.482 73.6755 112.398 73.7959 112.289 73.9414C112.18 74.0846 112.024 74.213 111.822 74.3266C111.619 74.438 111.35 74.4936 111.014 74.4936ZM111.123 73.7709C111.446 73.7709 111.718 73.6868 111.941 73.5186C112.164 73.3482 112.333 73.113 112.449 72.813C112.565 72.5107 112.623 72.1618 112.623 71.7664C112.623 71.3755 112.566 71.0334 112.452 70.7402C112.339 70.4448 112.171 70.2152 111.948 70.0516C111.725 69.8857 111.45 69.8027 111.123 69.8027C110.782 69.8027 110.498 69.8902 110.271 70.0652C110.046 70.238 109.876 70.4732 109.763 70.7709C109.651 71.0664 109.596 71.3982 109.596 71.7664C109.596 72.1391 109.652 72.4777 109.766 72.7823C109.882 73.0846 110.052 73.3255 110.277 73.505C110.505 73.6823 110.786 73.7709 111.123 73.7709ZM117.194 74.4936C116.69 74.4936 116.255 74.3823 115.889 74.1596C115.525 73.9346 115.244 73.6209 115.047 73.2186C114.851 72.8141 114.754 72.3436 114.754 71.8073C114.754 71.2709 114.851 70.7982 115.047 70.3891C115.244 69.9777 115.519 69.6573 115.872 69.4277C116.226 69.1959 116.64 69.08 117.113 69.08C117.385 69.08 117.655 69.1255 117.921 69.2164C118.186 69.3073 118.429 69.455 118.647 69.6596C118.865 69.8618 119.039 70.13 119.168 70.4641C119.298 70.7982 119.363 71.2096 119.363 71.6982V72.0391H115.326V71.3436H118.544C118.544 71.0482 118.485 70.7846 118.367 70.5527C118.251 70.3209 118.085 70.138 117.869 70.0039C117.656 69.8698 117.404 69.8027 117.113 69.8027C116.792 69.8027 116.515 69.8823 116.281 70.0414C116.049 70.1982 115.871 70.4027 115.746 70.655C115.621 70.9073 115.558 71.1777 115.558 71.4664V71.93C115.558 72.3255 115.626 72.6607 115.763 72.9357C115.901 73.2084 116.093 73.4164 116.339 73.5596C116.584 73.7005 116.869 73.7709 117.194 73.7709C117.406 73.7709 117.597 73.7414 117.767 73.6823C117.94 73.6209 118.089 73.53 118.214 73.4096C118.339 73.2868 118.435 73.1346 118.504 72.9527L119.281 73.1709C119.199 73.4346 119.061 73.6664 118.868 73.8664C118.675 74.0641 118.436 74.2186 118.152 74.33C117.868 74.4391 117.549 74.4936 117.194 74.4936ZM125.618 69.1482V69.83H122.796V69.1482H125.618ZM123.641 74.3846V68.4255C123.641 68.1255 123.711 67.8755 123.852 67.6755C123.993 67.4755 124.176 67.3255 124.401 67.2255C124.626 67.1255 124.864 67.0755 125.114 67.0755C125.311 67.0755 125.473 67.0914 125.598 67.1232C125.723 67.155 125.816 67.1846 125.877 67.2118L125.646 67.9073C125.605 67.8936 125.548 67.8766 125.475 67.8561C125.405 67.8357 125.311 67.8255 125.196 67.8255C124.93 67.8255 124.738 67.8925 124.619 68.0266C124.504 68.1607 124.446 68.3573 124.446 68.6164V74.3846H123.641ZM128.657 74.4936C128.185 74.4936 127.77 74.3811 127.413 74.1561C127.059 73.9311 126.781 73.6164 126.581 73.2118C126.384 72.8073 126.285 72.3346 126.285 71.7936C126.285 71.2482 126.384 70.7721 126.581 70.3652C126.781 69.9584 127.059 69.6425 127.413 69.4175C127.77 69.1925 128.185 69.08 128.657 69.08C129.13 69.08 129.544 69.1925 129.898 69.4175C130.255 69.6425 130.532 69.9584 130.73 70.3652C130.93 70.7721 131.03 71.2482 131.03 71.7936C131.03 72.3346 130.93 72.8073 130.73 73.2118C130.532 73.6164 130.255 73.9311 129.898 74.1561C129.544 74.3811 129.13 74.4936 128.657 74.4936ZM128.657 73.7709C129.017 73.7709 129.312 73.6789 129.544 73.4948C129.776 73.3107 129.947 73.0686 130.059 72.7686C130.17 72.4686 130.226 72.1436 130.226 71.7936C130.226 71.4436 130.17 71.1175 130.059 70.8152C129.947 70.513 129.776 70.2686 129.544 70.0823C129.312 69.8959 129.017 69.8027 128.657 69.8027C128.298 69.8027 128.003 69.8959 127.771 70.0823C127.539 70.2686 127.368 70.513 127.256 70.8152C127.145 71.1175 127.089 71.4436 127.089 71.7936C127.089 72.1436 127.145 72.4686 127.256 72.7686C127.368 73.0686 127.539 73.3107 127.771 73.4948C128.003 73.6789 128.298 73.7709 128.657 73.7709ZM132.258 74.3846V69.1482H133.036V69.9391H133.09C133.186 69.68 133.358 69.4698 133.608 69.3084C133.858 69.1471 134.14 69.0664 134.454 69.0664C134.513 69.0664 134.587 69.0675 134.675 69.0698C134.764 69.0721 134.831 69.0755 134.877 69.08V69.8982C134.849 69.8914 134.787 69.8811 134.689 69.8675C134.594 69.8516 134.492 69.8436 134.386 69.8436C134.131 69.8436 133.904 69.8971 133.704 70.0039C133.506 70.1084 133.349 70.2539 133.233 70.4402C133.12 70.6243 133.063 70.8346 133.063 71.0709V74.3846H132.258ZM142.457 69.1482C142.417 68.8027 142.251 68.5346 141.96 68.3436C141.669 68.1527 141.312 68.0573 140.889 68.0573C140.58 68.0573 140.31 68.1073 140.078 68.2073C139.848 68.3073 139.669 68.4448 139.539 68.6198C139.412 68.7948 139.348 68.9936 139.348 69.2164C139.348 69.4027 139.393 69.563 139.481 69.6971C139.572 69.8289 139.688 69.9391 139.829 70.0277C139.97 70.1141 140.118 70.1857 140.272 70.2425C140.427 70.2971 140.569 70.3414 140.698 70.3755L141.407 70.5664C141.589 70.6141 141.792 70.68 142.014 70.7641C142.239 70.8482 142.454 70.963 142.659 71.1084C142.865 71.2516 143.036 71.4357 143.17 71.6607C143.304 71.8857 143.371 72.1618 143.371 72.4891C143.371 72.8664 143.272 73.2073 143.075 73.5118C142.879 73.8164 142.593 74.0584 142.215 74.238C141.84 74.4175 141.385 74.5073 140.848 74.5073C140.348 74.5073 139.915 74.4266 139.55 74.2652C139.186 74.1039 138.9 73.8789 138.69 73.5902C138.484 73.3016 138.367 72.9664 138.339 72.5846H139.212C139.235 72.8482 139.323 73.0664 139.478 73.2391C139.635 73.4096 139.832 73.5368 140.071 73.6209C140.312 73.7027 140.571 73.7436 140.848 73.7436C141.171 73.7436 141.461 73.6914 141.718 73.5868C141.975 73.48 142.178 73.3323 142.328 73.1436C142.478 72.9527 142.553 72.73 142.553 72.4755C142.553 72.2436 142.488 72.055 142.359 71.9096C142.229 71.7641 142.059 71.6459 141.847 71.555C141.636 71.4641 141.407 71.3846 141.162 71.3164L140.303 71.0709C139.757 70.9141 139.326 70.6902 139.007 70.3993C138.689 70.1084 138.53 69.7277 138.53 69.2573C138.53 68.8664 138.636 68.5255 138.847 68.2346C139.061 67.9414 139.347 67.7141 139.706 67.5527C140.068 67.3891 140.471 67.3073 140.917 67.3073C141.367 67.3073 141.767 67.388 142.117 67.5493C142.467 67.7084 142.744 67.9266 142.948 68.2039C143.155 68.4811 143.264 68.7959 143.276 69.1482H142.457ZM144.652 74.3846V69.1482H145.429V69.9664H145.498C145.607 69.6868 145.783 69.4698 146.026 69.3152C146.269 69.1584 146.561 69.08 146.902 69.08C147.248 69.08 147.535 69.1584 147.765 69.3152C147.996 69.4698 148.177 69.6868 148.307 69.9664H148.361C148.495 69.6959 148.696 69.4811 148.965 69.3221C149.233 69.1607 149.554 69.08 149.929 69.08C150.398 69.08 150.78 69.2266 151.078 69.5198C151.376 69.8107 151.525 70.2641 151.525 70.88V74.3846H150.72V70.88C150.72 70.4936 150.615 70.2175 150.403 70.0516C150.192 69.8857 149.943 69.8027 149.657 69.8027C149.288 69.8027 149.003 69.9141 148.801 70.1368C148.599 70.3573 148.498 70.6368 148.498 70.9755V74.3846H147.679V70.7982C147.679 70.5005 147.583 70.2607 147.39 70.0789C147.196 69.8948 146.948 69.8027 146.643 69.8027C146.434 69.8027 146.238 69.8584 146.057 69.9698C145.877 70.0811 145.732 70.2357 145.62 70.4334C145.511 70.6289 145.457 70.855 145.457 71.1118V74.3846H144.652ZM154.537 74.5073C154.205 74.5073 153.904 74.4448 153.633 74.3198C153.363 74.1925 153.148 74.0096 152.989 73.7709C152.83 73.53 152.75 73.2391 152.75 72.8982C152.75 72.5982 152.809 72.355 152.928 72.1686C153.046 71.98 153.204 71.8323 153.402 71.7255C153.599 71.6186 153.817 71.5391 154.056 71.4868C154.297 71.4323 154.539 71.3891 154.782 71.3573C155.1 71.3164 155.358 71.2857 155.556 71.2652C155.756 71.2425 155.902 71.205 155.992 71.1527C156.086 71.1005 156.132 71.0096 156.132 70.88V70.8527C156.132 70.5164 156.04 70.255 155.856 70.0686C155.674 69.8823 155.398 69.7891 155.028 69.7891C154.644 69.7891 154.342 69.8732 154.124 70.0414C153.906 70.2096 153.753 70.3891 153.664 70.58L152.9 70.3073C153.037 69.9891 153.219 69.7414 153.446 69.5641C153.675 69.3846 153.925 69.2596 154.196 69.1891C154.469 69.1164 154.737 69.08 155 69.08C155.169 69.08 155.362 69.1005 155.58 69.1414C155.8 69.18 156.013 69.2607 156.217 69.3834C156.424 69.5061 156.596 69.6914 156.732 69.9391C156.869 70.1868 156.937 70.5186 156.937 70.9346V74.3846H156.132V73.6755H156.091C156.037 73.7891 155.946 73.9107 155.819 74.0402C155.691 74.1698 155.522 74.28 155.311 74.3709C155.099 74.4618 154.841 74.5073 154.537 74.5073ZM154.659 73.7846C154.978 73.7846 155.246 73.7221 155.464 73.5971C155.684 73.4721 155.85 73.3107 155.962 73.113C156.075 72.9152 156.132 72.7073 156.132 72.4891V71.7527C156.098 71.7936 156.023 71.8311 155.907 71.8652C155.794 71.8971 155.662 71.9255 155.512 71.9505C155.364 71.9732 155.22 71.9936 155.079 72.0118C154.94 72.0277 154.828 72.0414 154.741 72.0527C154.532 72.08 154.337 72.1243 154.155 72.1857C153.975 72.2448 153.83 72.3346 153.719 72.455C153.609 72.5732 153.555 72.7346 153.555 72.9391C153.555 73.2186 153.658 73.43 153.865 73.5732C154.074 73.7141 154.339 73.7846 154.659 73.7846ZM158.405 74.3846V69.1482H159.182V69.9391H159.237C159.332 69.68 159.505 69.4698 159.755 69.3084C160.005 69.1471 160.287 69.0664 160.601 69.0664C160.66 69.0664 160.734 69.0675 160.822 69.0698C160.911 69.0721 160.978 69.0755 161.023 69.08V69.8982C160.996 69.8914 160.934 69.8811 160.836 69.8675C160.74 69.8516 160.639 69.8436 160.532 69.8436C160.278 69.8436 160.051 69.8971 159.851 70.0039C159.653 70.1084 159.496 70.2539 159.38 70.4402C159.267 70.6243 159.21 70.8346 159.21 71.0709V74.3846H158.405ZM164.582 69.1482V69.83H161.869V69.1482H164.582ZM162.66 67.8936H163.464V72.8846C163.464 73.1118 163.497 73.2823 163.563 73.3959C163.631 73.5073 163.718 73.5823 163.822 73.6209C163.929 73.6573 164.042 73.6755 164.16 73.6755C164.248 73.6755 164.321 73.6709 164.378 73.6618C164.435 73.6505 164.48 73.6414 164.514 73.6346L164.678 74.3573C164.623 74.3777 164.547 74.3982 164.45 74.4186C164.352 74.4414 164.228 74.4527 164.078 74.4527C163.851 74.4527 163.628 74.4039 163.41 74.3061C163.194 74.2084 163.014 74.0596 162.871 73.8596C162.73 73.6596 162.66 73.4073 162.66 73.1027V67.8936ZM174.22 69.5846H173.375C173.325 69.3414 173.237 69.1277 173.112 68.9436C172.989 68.7596 172.839 68.605 172.662 68.48C172.487 68.3527 172.293 68.2573 172.079 68.1936C171.865 68.13 171.643 68.0982 171.411 68.0982C170.988 68.0982 170.605 68.205 170.262 68.4186C169.921 68.6323 169.65 68.9471 169.447 69.363C169.247 69.7789 169.147 70.2891 169.147 70.8936C169.147 71.4982 169.247 72.0084 169.447 72.4243C169.65 72.8402 169.921 73.155 170.262 73.3686C170.605 73.5823 170.988 73.6891 171.411 73.6891C171.643 73.6891 171.865 73.6573 172.079 73.5936C172.293 73.53 172.487 73.4357 172.662 73.3107C172.839 73.1834 172.989 73.0277 173.112 72.8436C173.237 72.6573 173.325 72.4436 173.375 72.2027H174.22C174.156 72.5596 174.04 72.8789 173.872 73.1607C173.704 73.4425 173.495 73.6823 173.245 73.88C172.995 74.0755 172.714 74.2243 172.403 74.3266C172.094 74.4289 171.763 74.48 171.411 74.48C170.815 74.48 170.286 74.3346 169.822 74.0436C169.359 73.7527 168.994 73.3391 168.728 72.8027C168.462 72.2664 168.329 71.63 168.329 70.8936C168.329 70.1573 168.462 69.5209 168.728 68.9846C168.994 68.4482 169.359 68.0346 169.822 67.7436C170.286 67.4527 170.815 67.3073 171.411 67.3073C171.763 67.3073 172.094 67.3584 172.403 67.4607C172.714 67.563 172.995 67.713 173.245 67.9107C173.495 68.1061 173.704 68.3448 173.872 68.6266C174.04 68.9061 174.156 69.2255 174.22 69.5846ZM175.477 74.3846V69.1482H176.254V69.9391H176.309C176.404 69.68 176.577 69.4698 176.827 69.3084C177.077 69.1471 177.359 69.0664 177.673 69.0664C177.732 69.0664 177.805 69.0675 177.894 69.0698C177.983 69.0721 178.05 69.0755 178.095 69.08V69.8982C178.068 69.8914 178.005 69.8811 177.908 69.8675C177.812 69.8516 177.711 69.8436 177.604 69.8436C177.35 69.8436 177.123 69.8971 176.923 70.0039C176.725 70.1084 176.568 70.2539 176.452 70.4402C176.338 70.6243 176.282 70.8346 176.282 71.0709V74.3846H175.477ZM181.085 74.4936C180.581 74.4936 180.145 74.3823 179.779 74.1596C179.416 73.9346 179.135 73.6209 178.937 73.2186C178.742 72.8141 178.644 72.3436 178.644 71.8073C178.644 71.2709 178.742 70.7982 178.937 70.3891C179.135 69.9777 179.41 69.6573 179.762 69.4277C180.117 69.1959 180.531 69.08 181.003 69.08C181.276 69.08 181.545 69.1255 181.811 69.2164C182.077 69.3073 182.319 69.455 182.537 69.6596C182.756 69.8618 182.929 70.13 183.059 70.4641C183.188 70.7982 183.253 71.2096 183.253 71.6982V72.0391H179.217V71.3436H182.435C182.435 71.0482 182.376 70.7846 182.258 70.5527C182.142 70.3209 181.976 70.138 181.76 70.0039C181.546 69.8698 181.294 69.8027 181.003 69.8027C180.683 69.8027 180.406 69.8823 180.171 70.0414C179.94 70.1982 179.761 70.4027 179.636 70.655C179.511 70.9073 179.449 71.1777 179.449 71.4664V71.93C179.449 72.3255 179.517 72.6607 179.653 72.9357C179.792 73.2084 179.984 73.4164 180.229 73.5596C180.475 73.7005 180.76 73.7709 181.085 73.7709C181.296 73.7709 181.487 73.7414 181.658 73.6823C181.831 73.6209 181.979 73.53 182.104 73.4096C182.229 73.2868 182.326 73.1346 182.394 72.9527L183.171 73.1709C183.09 73.4346 182.952 73.6664 182.759 73.8664C182.566 74.0641 182.327 74.2186 182.043 74.33C181.759 74.4391 181.44 74.4936 181.085 74.4936ZM186.018 74.5073C185.686 74.5073 185.385 74.4448 185.115 74.3198C184.844 74.1925 184.629 74.0096 184.47 73.7709C184.311 73.53 184.232 73.2391 184.232 72.8982C184.232 72.5982 184.291 72.355 184.409 72.1686C184.527 71.98 184.685 71.8323 184.883 71.7255C185.08 71.6186 185.299 71.5391 185.537 71.4868C185.778 71.4323 186.02 71.3891 186.263 71.3573C186.582 71.3164 186.84 71.2857 187.037 71.2652C187.237 71.2425 187.383 71.205 187.474 71.1527C187.567 71.1005 187.613 71.0096 187.613 70.88V70.8527C187.613 70.5164 187.521 70.255 187.337 70.0686C187.155 69.8823 186.879 69.7891 186.509 69.7891C186.125 69.7891 185.824 69.8732 185.605 70.0414C185.387 70.2096 185.234 70.3891 185.145 70.58L184.382 70.3073C184.518 69.9891 184.7 69.7414 184.927 69.5641C185.157 69.3846 185.407 69.2596 185.677 69.1891C185.95 69.1164 186.218 69.08 186.482 69.08C186.65 69.08 186.843 69.1005 187.061 69.1414C187.282 69.18 187.494 69.2607 187.699 69.3834C187.905 69.5061 188.077 69.6914 188.213 69.9391C188.35 70.1868 188.418 70.5186 188.418 70.9346V74.3846H187.613V73.6755H187.573C187.518 73.7891 187.427 73.9107 187.3 74.0402C187.173 74.1698 187.003 74.28 186.792 74.3709C186.58 74.4618 186.323 74.5073 186.018 74.5073ZM186.141 73.7846C186.459 73.7846 186.727 73.7221 186.945 73.5971C187.166 73.4721 187.332 73.3107 187.443 73.113C187.557 72.9152 187.613 72.7073 187.613 72.4891V71.7527C187.579 71.7936 187.504 71.8311 187.388 71.8652C187.275 71.8971 187.143 71.9255 186.993 71.9505C186.845 71.9732 186.701 71.9936 186.56 72.0118C186.421 72.0277 186.309 72.0414 186.223 72.0527C186.013 72.08 185.818 72.1243 185.636 72.1857C185.457 72.2448 185.311 72.3346 185.2 72.455C185.091 72.5732 185.036 72.7346 185.036 72.9391C185.036 73.2186 185.14 73.43 185.346 73.5732C185.555 73.7141 185.82 73.7846 186.141 73.7846ZM192.164 69.1482V69.83H189.45V69.1482H192.164ZM190.241 67.8936H191.046V72.8846C191.046 73.1118 191.079 73.2823 191.144 73.3959C191.213 73.5073 191.299 73.5823 191.404 73.6209C191.51 73.6573 191.623 73.6755 191.741 73.6755C191.83 73.6755 191.902 73.6709 191.959 73.6618C192.016 73.6505 192.061 73.6414 192.096 73.6346L192.259 74.3573C192.205 74.3777 192.129 74.3982 192.031 74.4186C191.933 74.4414 191.809 74.4527 191.659 74.4527C191.432 74.4527 191.209 74.4039 190.991 74.3061C190.775 74.2084 190.596 74.0596 190.452 73.8596C190.311 73.6596 190.241 73.4073 190.241 73.1027V67.8936ZM195.445 74.4936C194.972 74.4936 194.557 74.3811 194.201 74.1561C193.846 73.9311 193.569 73.6164 193.369 73.2118C193.171 72.8073 193.072 72.3346 193.072 71.7936C193.072 71.2482 193.171 70.7721 193.369 70.3652C193.569 69.9584 193.846 69.6425 194.201 69.4175C194.557 69.1925 194.972 69.08 195.445 69.08C195.918 69.08 196.331 69.1925 196.686 69.4175C197.043 69.6425 197.32 69.9584 197.518 70.3652C197.718 70.7721 197.818 71.2482 197.818 71.7936C197.818 72.3346 197.718 72.8073 197.518 73.2118C197.32 73.6164 197.043 73.9311 196.686 74.1561C196.331 74.3811 195.918 74.4936 195.445 74.4936ZM195.445 73.7709C195.804 73.7709 196.1 73.6789 196.331 73.4948C196.563 73.3107 196.735 73.0686 196.846 72.7686C196.957 72.4686 197.013 72.1436 197.013 71.7936C197.013 71.4436 196.957 71.1175 196.846 70.8152C196.735 70.513 196.563 70.2686 196.331 70.0823C196.1 69.8959 195.804 69.8027 195.445 69.8027C195.086 69.8027 194.79 69.8959 194.559 70.0823C194.327 70.2686 194.155 70.513 194.044 70.8152C193.932 71.1175 193.877 71.4436 193.877 71.7936C193.877 72.1436 193.932 72.4686 194.044 72.7686C194.155 73.0686 194.327 73.3107 194.559 73.4948C194.79 73.6789 195.086 73.7709 195.445 73.7709ZM199.046 74.3846V69.1482H199.823V69.9391H199.878C199.973 69.68 200.146 69.4698 200.396 69.3084C200.646 69.1471 200.928 69.0664 201.241 69.0664C201.3 69.0664 201.374 69.0675 201.463 69.0698C201.552 69.0721 201.619 69.0755 201.664 69.08V69.8982C201.637 69.8914 201.574 69.8811 201.477 69.8675C201.381 69.8516 201.28 69.8436 201.173 69.8436C200.919 69.8436 200.691 69.8971 200.491 70.0039C200.294 70.1084 200.137 70.2539 200.021 70.4402C199.907 70.6243 199.85 70.8346 199.85 71.0709V74.3846H199.046ZM206.327 70.3209L205.604 70.5255C205.559 70.405 205.492 70.288 205.403 70.1743C205.317 70.0584 205.198 69.963 205.048 69.888C204.898 69.813 204.706 69.7755 204.472 69.7755C204.152 69.7755 203.885 69.8493 203.671 69.9971C203.46 70.1425 203.354 70.3277 203.354 70.5527C203.354 70.7527 203.427 70.9107 203.572 71.0266C203.718 71.1425 203.945 71.2391 204.254 71.3164L205.031 71.5073C205.5 71.6209 205.848 71.7948 206.078 72.0289C206.307 72.2607 206.422 72.5596 206.422 72.9255C206.422 73.2255 206.336 73.4936 206.163 73.73C205.993 73.9664 205.754 74.1527 205.447 74.2891C205.14 74.4255 204.784 74.4936 204.377 74.4936C203.843 74.4936 203.401 74.3777 203.051 74.1459C202.701 73.9141 202.479 73.5755 202.386 73.13L203.15 72.9391C203.222 73.2209 203.36 73.4323 203.562 73.5732C203.767 73.7141 204.034 73.7846 204.363 73.7846C204.738 73.7846 205.036 73.705 205.256 73.5459C205.479 73.3846 205.59 73.1914 205.59 72.9664C205.59 72.7846 205.527 72.6323 205.4 72.5096C205.272 72.3846 205.077 72.2914 204.813 72.23L203.94 72.0255C203.461 71.9118 203.109 71.7357 202.884 71.4971C202.661 71.2561 202.55 70.955 202.55 70.5936C202.55 70.2982 202.632 70.0368 202.798 69.8096C202.967 69.5823 203.195 69.4039 203.484 69.2743C203.775 69.1448 204.104 69.08 204.472 69.08C204.99 69.08 205.397 69.1936 205.693 69.4209C205.99 69.6482 206.202 69.9482 206.327 70.3209ZM211.711 74.3846L209.802 67.4027H210.661L212.12 73.0891H212.188L213.674 67.4027H214.629L216.115 73.0891H216.183L217.642 67.4027H218.502L216.592 74.3846H215.72L214.179 68.8209H214.124L212.583 74.3846H211.711ZM220.25 71.2346V74.3846H219.446V67.4027H220.25V69.9664H220.319C220.441 69.6959 220.625 69.4811 220.871 69.3221C221.119 69.1607 221.448 69.08 221.859 69.08C222.216 69.08 222.529 69.1516 222.797 69.2948C223.065 69.4357 223.273 69.6527 223.421 69.9459C223.571 70.2368 223.646 70.6073 223.646 71.0573V74.3846H222.841V71.1118C222.841 70.6959 222.733 70.3743 222.517 70.1471C222.304 69.9175 222.007 69.8027 221.628 69.8027C221.364 69.8027 221.128 69.8584 220.919 69.9698C220.712 70.0811 220.548 70.2436 220.428 70.4573C220.309 70.6709 220.25 70.93 220.25 71.2346ZM227.245 74.4936C226.772 74.4936 226.357 74.3811 226.001 74.1561C225.646 73.9311 225.369 73.6164 225.169 73.2118C224.971 72.8073 224.872 72.3346 224.872 71.7936C224.872 71.2482 224.971 70.7721 225.169 70.3652C225.369 69.9584 225.646 69.6425 226.001 69.4175C226.357 69.1925 226.772 69.08 227.245 69.08C227.718 69.08 228.131 69.1925 228.486 69.4175C228.843 69.6425 229.12 69.9584 229.318 70.3652C229.518 70.7721 229.618 71.2482 229.618 71.7936C229.618 72.3346 229.518 72.8073 229.318 73.2118C229.12 73.6164 228.843 73.9311 228.486 74.1561C228.131 74.3811 227.718 74.4936 227.245 74.4936ZM227.245 73.7709C227.604 73.7709 227.9 73.6789 228.131 73.4948C228.363 73.3107 228.535 73.0686 228.646 72.7686C228.757 72.4686 228.813 72.1436 228.813 71.7936C228.813 71.4436 228.757 71.1175 228.646 70.8152C228.535 70.513 228.363 70.2686 228.131 70.0823C227.9 69.8959 227.604 69.8027 227.245 69.8027C226.886 69.8027 226.59 69.8959 226.359 70.0823C226.127 70.2686 225.955 70.513 225.844 70.8152C225.732 71.1175 225.677 71.4436 225.677 71.7936C225.677 72.1436 225.732 72.4686 225.844 72.7686C225.955 73.0686 226.127 73.3107 226.359 73.4948C226.59 73.6789 226.886 73.7709 227.245 73.7709ZM233.655 67.4027H234.664L237.037 73.1982H237.119L239.491 67.4027H240.5V74.3846H239.709V69.08H239.641L237.459 74.3846H236.696L234.514 69.08H234.446V74.3846H233.655V67.4027ZM244.214 74.4936C243.741 74.4936 243.326 74.3811 242.969 74.1561C242.615 73.9311 242.338 73.6164 242.138 73.2118C241.94 72.8073 241.841 72.3346 241.841 71.7936C241.841 71.2482 241.94 70.7721 242.138 70.3652C242.338 69.9584 242.615 69.6425 242.969 69.4175C243.326 69.1925 243.741 69.08 244.214 69.08C244.686 69.08 245.1 69.1925 245.455 69.4175C245.811 69.6425 246.089 69.9584 246.286 70.3652C246.486 70.7721 246.586 71.2482 246.586 71.7936C246.586 72.3346 246.486 72.8073 246.286 73.2118C246.089 73.6164 245.811 73.9311 245.455 74.1561C245.1 74.3811 244.686 74.4936 244.214 74.4936ZM244.214 73.7709C244.573 73.7709 244.868 73.6789 245.1 73.4948C245.332 73.3107 245.504 73.0686 245.615 72.7686C245.726 72.4686 245.782 72.1436 245.782 71.7936C245.782 71.4436 245.726 71.1175 245.615 70.8152C245.504 70.513 245.332 70.2686 245.1 70.0823C244.868 69.8959 244.573 69.8027 244.214 69.8027C243.855 69.8027 243.559 69.8959 243.327 70.0823C243.096 70.2686 242.924 70.513 242.813 70.8152C242.701 71.1175 242.646 71.4436 242.646 71.7936C242.646 72.1436 242.701 72.4686 242.813 72.7686C242.924 73.0686 243.096 73.3107 243.327 73.4948C243.559 73.6789 243.855 73.7709 244.214 73.7709ZM251.909 69.1482L249.973 74.3846H249.154L247.218 69.1482H248.091L249.536 73.3209H249.591L251.036 69.1482H251.909ZM254.979 74.4936C254.474 74.4936 254.039 74.3823 253.673 74.1596C253.309 73.9346 253.029 73.6209 252.831 73.2186C252.636 72.8141 252.538 72.3436 252.538 71.8073C252.538 71.2709 252.636 70.7982 252.831 70.3891C253.029 69.9777 253.304 69.6573 253.656 69.4277C254.011 69.1959 254.424 69.08 254.897 69.08C255.17 69.08 255.439 69.1255 255.705 69.2164C255.971 69.3073 256.213 69.455 256.431 69.6596C256.649 69.8618 256.823 70.13 256.953 70.4641C257.082 70.7982 257.147 71.2096 257.147 71.6982V72.0391H253.111V71.3436H256.329C256.329 71.0482 256.27 70.7846 256.152 70.5527C256.036 70.3209 255.87 70.138 255.654 70.0039C255.44 69.8698 255.188 69.8027 254.897 69.8027C254.577 69.8027 254.299 69.8823 254.065 70.0414C253.833 70.1982 253.655 70.4027 253.53 70.655C253.405 70.9073 253.342 71.1777 253.342 71.4664V71.93C253.342 72.3255 253.411 72.6607 253.547 72.9357C253.686 73.2084 253.878 73.4164 254.123 73.5596C254.369 73.7005 254.654 73.7709 254.979 73.7709C255.19 73.7709 255.381 73.7414 255.552 73.6823C255.724 73.6209 255.873 73.53 255.998 73.4096C256.123 73.2868 256.22 73.1346 256.288 72.9527L257.065 73.1709C256.983 73.4346 256.846 73.6664 256.653 73.8664C256.459 74.0641 256.221 74.2186 255.937 74.33C255.653 74.4391 255.333 74.4936 254.979 74.4936ZM261.18 74.3846V67.4027H265.366V68.1527H262.025V70.5118H265.053V71.2618H262.025V74.3846H261.18ZM268.246 74.5073C267.914 74.5073 267.613 74.4448 267.343 74.3198C267.072 74.1925 266.857 74.0096 266.698 73.7709C266.539 73.53 266.46 73.2391 266.46 72.8982C266.46 72.5982 266.519 72.355 266.637 72.1686C266.755 71.98 266.913 71.8323 267.111 71.7255C267.309 71.6186 267.527 71.5391 267.765 71.4868C268.006 71.4323 268.248 71.3891 268.492 71.3573C268.81 71.3164 269.068 71.2857 269.265 71.2652C269.465 71.2425 269.611 71.205 269.702 71.1527C269.795 71.1005 269.842 71.0096 269.842 70.88V70.8527C269.842 70.5164 269.75 70.255 269.565 70.0686C269.384 69.8823 269.107 69.7891 268.737 69.7891C268.353 69.7891 268.052 69.8732 267.834 70.0414C267.615 70.2096 267.462 70.3891 267.373 70.58L266.61 70.3073C266.746 69.9891 266.928 69.7414 267.155 69.5641C267.385 69.3846 267.635 69.2596 267.905 69.1891C268.178 69.1164 268.446 69.08 268.71 69.08C268.878 69.08 269.071 69.1005 269.289 69.1414C269.51 69.18 269.722 69.2607 269.927 69.3834C270.134 69.5061 270.305 69.6914 270.442 69.9391C270.578 70.1868 270.646 70.5186 270.646 70.9346V74.3846H269.842V73.6755H269.801C269.746 73.7891 269.655 73.9107 269.528 74.0402C269.401 74.1698 269.231 74.28 269.02 74.3709C268.809 74.4618 268.551 74.5073 268.246 74.5073ZM268.369 73.7846C268.687 73.7846 268.955 73.7221 269.173 73.5971C269.394 73.4721 269.56 73.3107 269.671 73.113C269.785 72.9152 269.842 72.7073 269.842 72.4891V71.7527C269.807 71.7936 269.732 71.8311 269.617 71.8652C269.503 71.8971 269.371 71.9255 269.221 71.9505C269.073 71.9732 268.929 71.9936 268.788 72.0118C268.65 72.0277 268.537 72.0414 268.451 72.0527C268.242 72.08 268.046 72.1243 267.864 72.1857C267.685 72.2448 267.539 72.3346 267.428 72.455C267.319 72.5732 267.264 72.7346 267.264 72.9391C267.264 73.2186 267.368 73.43 267.575 73.5732C267.784 73.7141 268.048 73.7846 268.369 73.7846ZM275.824 70.3209L275.101 70.5255C275.056 70.405 274.988 70.288 274.9 70.1743C274.813 70.0584 274.695 69.963 274.545 69.888C274.395 69.813 274.203 69.7755 273.969 69.7755C273.649 69.7755 273.382 69.8493 273.168 69.9971C272.957 70.1425 272.851 70.3277 272.851 70.5527C272.851 70.7527 272.924 70.9107 273.069 71.0266C273.215 71.1425 273.442 71.2391 273.751 71.3164L274.528 71.5073C274.996 71.6209 275.345 71.7948 275.575 72.0289C275.804 72.2607 275.919 72.5596 275.919 72.9255C275.919 73.2255 275.833 73.4936 275.66 73.73C275.49 73.9664 275.251 74.1527 274.944 74.2891C274.637 74.4255 274.281 74.4936 273.874 74.4936C273.34 74.4936 272.898 74.3777 272.548 74.1459C272.198 73.9141 271.976 73.5755 271.883 73.13L272.646 72.9391C272.719 73.2209 272.857 73.4323 273.059 73.5732C273.263 73.7141 273.531 73.7846 273.86 73.7846C274.235 73.7846 274.533 73.705 274.753 73.5459C274.976 73.3846 275.087 73.1914 275.087 72.9664C275.087 72.7846 275.024 72.6323 274.896 72.5096C274.769 72.3846 274.574 72.2914 274.31 72.23L273.437 72.0255C272.958 71.9118 272.606 71.7357 272.381 71.4971C272.158 71.2561 272.046 70.955 272.046 70.5936C272.046 70.2982 272.129 70.0368 272.295 69.8096C272.463 69.5823 272.692 69.4039 272.981 69.2743C273.271 69.1448 273.601 69.08 273.969 69.08C274.487 69.08 274.894 69.1936 275.19 69.4209C275.487 69.6482 275.699 69.9482 275.824 70.3209ZM279.407 69.1482V69.83H276.694V69.1482H279.407ZM277.485 67.8936H278.289V72.8846C278.289 73.1118 278.322 73.2823 278.388 73.3959C278.456 73.5073 278.543 73.5823 278.647 73.6209C278.754 73.6573 278.867 73.6755 278.985 73.6755C279.073 73.6755 279.146 73.6709 279.203 73.6618C279.26 73.6505 279.305 73.6414 279.339 73.6346L279.503 74.3573C279.448 74.3777 279.372 74.3982 279.275 74.4186C279.177 74.4414 279.053 74.4527 278.903 74.4527C278.676 74.4527 278.453 74.4039 278.235 74.3061C278.019 74.2084 277.839 74.0596 277.696 73.8596C277.555 73.6596 277.485 73.4073 277.485 73.1027V67.8936ZM281.204 74.4391C281.036 74.4391 280.892 74.3789 280.771 74.2584C280.651 74.138 280.59 73.9936 280.59 73.8255C280.59 73.6573 280.651 73.513 280.771 73.3925C280.892 73.2721 281.036 73.2118 281.204 73.2118C281.372 73.2118 281.517 73.2721 281.637 73.3925C281.757 73.513 281.818 73.6573 281.818 73.8255C281.818 73.9368 281.789 74.0391 281.732 74.1323C281.678 74.2255 281.604 74.3005 281.511 74.3573C281.42 74.4118 281.318 74.4391 281.204 74.4391Z" fill="#4A93C0"/>
<path d="M295.05 20.6845H293.05C291.614 20.6845 290.45 21.8486 290.45 23.2845V25.2845C290.45 26.7205 291.614 27.8846 293.05 27.8846H295.05C296.486 27.8846 297.65 26.7205 297.65 25.2845V23.2845C297.65 21.8486 296.486 20.6845 295.05 20.6845Z" fill="#4A93C0"/>
<defs>
<linearGradient id="paint0_linear_10_88" x1="56.85" y1="65.8845" x2="1.04998" y2="18.5845" gradientUnits="userSpaceOnUse">
<stop stop-color="#000406"/>
<stop offset="0.2" stop-color="#000F18"/>
<stop offset="0.3" stop-color="#002237"/>
<stop offset="0.4" stop-color="#003C61"/>
<stop offset="0.6" stop-color="#00629C"/>
<stop offset="0.7" stop-color="#1F77AB"/>
<stop offset="1" stop-color="#90C3E4"/>
</linearGradient>
<linearGradient id="paint1_linear_10_88" x1="59.2501" y1="63.2845" x2="8.85008" y2="25.7846" gradientUnits="userSpaceOnUse">
<stop stop-color="#000406"/>
<stop offset="0.2" stop-color="#000F18"/>
<stop offset="0.3" stop-color="#002237"/>
<stop offset="0.4" stop-color="#003C61"/>
<stop offset="0.6" stop-color="#00629C"/>
<stop offset="0.7" stop-color="#1F77AB"/>
<stop offset="1" stop-color="#90C3E4"/>
</linearGradient>
<linearGradient id="paint2_linear_10_88" x1="68.6501" y1="69.5845" x2="19.3501" y2="32.0846" gradientUnits="userSpaceOnUse">
<stop stop-color="#000406"/>
<stop offset="0.2" stop-color="#000F18"/>
<stop offset="0.3" stop-color="#002237"/>
<stop offset="0.4" stop-color="#003C61"/>
<stop offset="0.6" stop-color="#00629C"/>
<stop offset="0.7" stop-color="#1F77AB"/>
<stop offset="1" stop-color="#90C3E4"/>
</linearGradient>
<linearGradient id="paint3_linear_10_88" x1="4.64995" y1="18.2845" x2="47.95" y2="61.5846" gradientUnits="userSpaceOnUse">
<stop stop-color="#ADD0E4"/>
<stop offset="0.5" stop-color="#3C88B5"/>
<stop offset="0.8" stop-color="#00629C"/>
</linearGradient>
<linearGradient id="paint4_linear_10_88" x1="13.0501" y1="23.3845" x2="56.3501" y2="66.6845" gradientUnits="userSpaceOnUse">
<stop stop-color="#ADD0E4"/>
<stop offset="0.5" stop-color="#3C88B5"/>
<stop offset="0.8" stop-color="#00629C"/>
</linearGradient>
<linearGradient id="paint5_linear_10_88" x1="21.4501" y1="28.4845" x2="64.7501" y2="71.7845" gradientUnits="userSpaceOnUse">
<stop stop-color="#ADD0E4"/>
<stop offset="0.5" stop-color="#3C88B5"/>
<stop offset="0.8" stop-color="#00629C"/>
</linearGradient>
<linearGradient id="paint6_linear_10_88" x1="26.85" y1="33.5845" x2="96.55" y2="94.6846" gradientUnits="userSpaceOnUse">
<stop offset="0.2" stop-color="white"/>
<stop offset="1" stop-color="#90C3E4"/>
</linearGradient>
<linearGradient id="paint7_linear_10_88" x1="25.35" y1="55.2845" x2="77.75" y2="55.2845" gradientUnits="userSpaceOnUse">
<stop stop-color="#4AA3D8"/>
<stop offset="1" stop-color="#387CA5"/>
</linearGradient>
</defs>
</svg>
