<?xml version="1.0" encoding="UTF-8"?>
<svg xmlns="http://www.w3.org/2000/svg" version="1.1" xmlns:xlink="http://www.w3.org/1999/xlink" viewBox="0 0 1292.9 653.6">
  <!-- Generator: Adobe Illustrator 30.1.0, SVG Export Plug-In . SVG Version: 2.1.1 Build 136)  -->
  <defs>
    <style>
      .st0 {
        fill: url(#linear-gradient2);
      }

      .st1 {
        fill: url(#linear-gradient1);
      }

      .st2 {
        fill: #4aa3d8;
      }

      .st3 {
        fill: url(#linear-gradient);
      }
    </style>
    <linearGradient id="linear-gradient" x1="-1.2" y1="665.1" x2="-.2" y2="665.1" gradientTransform="translate(-69488.2 92126.3) rotate(-142.7) scale(173.7)" gradientUnits="userSpaceOnUse">
      <stop offset="0" stop-color="#000"/>
      <stop offset="0" stop-color="#000406"/>
      <stop offset=".2" stop-color="#000f18"/>
      <stop offset=".3" stop-color="#002237"/>
      <stop offset=".4" stop-color="#003c61"/>
      <stop offset=".6" stop-color="#005e96"/>
      <stop offset=".6" stop-color="#00629c"/>
      <stop offset=".7" stop-color="#1f77ab"/>
      <stop offset="1" stop-color="#90c3e4"/>
    </linearGradient>
    <linearGradient id="linear-gradient1" x1="1.2" y1="642.1" x2="2.2" y2="642.1" gradientTransform="translate(68036.2 -88549.1) rotate(37.3) scale(173.7)" gradientUnits="userSpaceOnUse">
      <stop offset="0" stop-color="#fff"/>
      <stop offset=".2" stop-color="#fff"/>
      <stop offset="1" stop-color="#90c3e4"/>
    </linearGradient>
    <linearGradient id="linear-gradient2" x1="-9.2" y1="663.4" x2="-8.2" y2="663.4" gradientTransform="translate(-646.1 98731.9) rotate(-180) scale(148.3)" gradientUnits="userSpaceOnUse">
      <stop offset="0" stop-color="#4aa3d8"/>
      <stop offset="1" stop-color="#387ca5"/>
    </linearGradient>
  </defs>
  <g id="Layer_6">
    <rect x="-1" y="-2.4" width="1294" height="658.4"/>
  </g>
  <g id="Layer_5">
    <path class="st3" d="M588.9,252.2h100.8c12.7,0,23,10.3,23,23v100.9c0,12.7-10.3,23-23,23h-100.8c-12.7,0-23-10.3-23-23v-100.9c0-12.7,10.3-23,23-23Z"/>
  </g>
  <g id="Layer_4">
    <path class="st2" d="M588.9,252.2v1h100.8c6.1,0,11.6,2.5,15.6,6.5,4,4,6.5,9.5,6.5,15.6v100.9c0,6.1-2.5,11.6-6.5,15.6-4,4-9.5,6.5-15.6,6.5h-100.8c-6.1,0-11.6-2.5-15.6-6.5-4-4-6.5-9.5-6.5-15.6v-100.9c0-6.1,2.5-11.6,6.5-15.6,4-4,9.5-6.5,15.6-6.5v-1.9c-13.2,0-24,10.7-24,24v100.9c0,13.3,10.7,24,24,24h100.8c13.2,0,24-10.7,24-24v-100.9c0-13.3-10.7-24-24-24h-100.8v1Z"/>
  </g>
  <g id="Layer_3">
    <path class="st1" d="M701.2,406.8h-100.8c-12.7,0-23-10.3-23-23v-100.9c0-12.7,10.3-23,23-23h100.8c12.7,0,23,10.3,23,23v100.9c0,12.7-10.3,23-23,23Z"/>
  </g>
  <g id="Layer_2">
    <path class="st0" d="M701.2,406.8v-.7h-100.8c-6.2,0-11.8-2.5-15.8-6.6-4-4.1-6.5-9.6-6.5-15.8v-100.9c0-6.2,2.5-11.8,6.5-15.8,4-4,9.6-6.6,15.8-6.6h100.8c6.2,0,11.8,2.5,15.8,6.6,4,4.1,6.5,9.6,6.5,15.8v100.9c0,6.2-2.5,11.8-6.5,15.8-4,4-9.6,6.6-15.8,6.6v1.3c13.1,0,23.7-10.6,23.7-23.7v-100.9c0-13.1-10.6-23.7-23.7-23.7h-100.8c-13.1,0-23.7,10.6-23.7,23.7v100.9c0,13.1,10.6,23.7,23.7,23.7h100.8v-.7Z"/>
  </g>
  <metadata>
    <sfw xmlns="http://ns.adobe.com/SaveForWeb/1.0/">
      <slices/>
      <sliceSourceBounds x="-1.05" y="-2.4" width="1293.95" height="658.4" bottomLeftOrigin="true"/>
    </sfw>
  </metadata>
</svg>